<?xml version="1.0" encoding="UTF-8"?>
<svg width="2500" height="2256" preserveAspectRatio="xMidYMid" viewBox="-.96623 -.58246 257.93 230.83" xmlns="http://www.w3.org/2000/svg">
<linearGradient id="a" x1="108.63%" x2="46.927%" y1="13.818%" y2="78.776%">
<stop stop-color="#0052cc" offset=".18"/>
<stop stop-color="#2684ff" offset="1"/>
</linearGradient>
<g fill="none">
<path d="m101.27 152.56h53.449l12.901-75.32h-80.562z"/>
<path d="m8.308 0a8.202 8.202 0 0 0-8.202 9.516l34.819 211.37a11.155 11.155 0 0 0 10.909 9.31h167.04a8.202 8.202 0 0 0 8.201-6.89l34.82-213.75a8.202 8.202 0 0 0-8.203-9.514zm146.62 152.77h-53.315l-14.436-75.42h80.67z" fill="#2684ff"/>
<path d="m244.61 77.242h-76.916l-12.909 75.36h-53.272l-62.902 74.663a11.105 11.105 0 0 0 7.171 2.704h166.95a8.196 8.196 0 0 0 8.196-6.884z" fill="url(#a)"/>
</g>
</svg>
