<?xml version="1.0" encoding="UTF-8"?>
<svg width="2500" height="2490" preserveAspectRatio="xMinYMin meet" viewBox="0 0 256 255" xmlns="http://www.w3.org/2000/svg">
<defs>
<linearGradient id="af" x1="84.75%" x2="58.254%" y1="111.4%" y2="64.584%">
<stop stop-color="#FB7655" offset="0"/>
<stop stop-color="#E42B1E" offset=".41"/>
<stop stop-color="#900" offset=".99"/>
<stop stop-color="#900" offset="1"/>
</linearGradient>
<linearGradient id="ae" x1="116.65%" x2="1.746%" y1="60.89%" y2="19.288%">
<stop stop-color="#871101" offset="0"/>
<stop stop-color="#911209" offset=".99"/>
<stop stop-color="#911209" offset="1"/>
</linearGradient>
<linearGradient id="ad" x1="75.774%" x2="38.978%" y1="219.33%" y2="7.829%">
<stop stop-color="#871101" offset="0"/>
<stop stop-color="#911209" offset=".99"/>
<stop stop-color="#911209" offset="1"/>
</linearGradient>
<linearGradient id="ac" x1="50.012%" x2="66.483%" y1="7.234%" y2="79.135%">
<stop stop-color="#FFF" offset="0"/>
<stop stop-color="#E57252" offset=".23"/>
<stop stop-color="#DE3B20" offset=".46"/>
<stop stop-color="#A60003" offset=".99"/>
<stop stop-color="#A60003" offset="1"/>
</linearGradient>
<linearGradient id="ab" x1="46.174%" x2="49.932%" y1="16.348%" y2="83.047%">
<stop stop-color="#FFF" offset="0"/>
<stop stop-color="#E4714E" offset=".23"/>
<stop stop-color="#BE1A0D" offset=".56"/>
<stop stop-color="#A80D00" offset=".99"/>
<stop stop-color="#A80D00" offset="1"/>
</linearGradient>
<linearGradient id="aa" x1="36.965%" x2="49.528%" y1="15.594%" y2="92.478%">
<stop stop-color="#FFF" offset="0"/>
<stop stop-color="#E46342" offset=".18"/>
<stop stop-color="#C82410" offset=".4"/>
<stop stop-color="#A80D00" offset=".99"/>
<stop stop-color="#A80D00" offset="1"/>
</linearGradient>
<linearGradient id="z" x1="13.609%" x2="85.764%" y1="58.346%" y2="-46.717%">
<stop stop-color="#FFF" offset="0"/>
<stop stop-color="#C81F11" offset=".54"/>
<stop stop-color="#BF0905" offset=".99"/>
<stop stop-color="#BF0905" offset="1"/>
</linearGradient>
<linearGradient id="y" x1="27.624%" x2="50.745%" y1="21.135%" y2="79.056%">
<stop stop-color="#FFF" offset="0"/>
<stop stop-color="#DE4024" offset=".31"/>
<stop stop-color="#BF190B" offset=".99"/>
<stop stop-color="#BF190B" offset="1"/>
</linearGradient>
<linearGradient id="x" x1="-20.667%" x2="104.24%" y1="122.28%" y2="-6.342%">
<stop stop-color="#BD0012" offset="0"/>
<stop stop-color="#FFF" offset=".07"/>
<stop stop-color="#FFF" offset=".17"/>
<stop stop-color="#C82F1C" offset=".27"/>
<stop stop-color="#820C01" offset=".33"/>
<stop stop-color="#A31601" offset=".46"/>
<stop stop-color="#B31301" offset=".72"/>
<stop stop-color="#E82609" offset=".99"/>
<stop stop-color="#E82609" offset="1"/>
</linearGradient>
<linearGradient id="w" x1="58.792%" x2="11.964%" y1="65.205%" y2="50.128%">
<stop stop-color="#8C0C01" offset="0"/>
<stop stop-color="#990C00" offset=".54"/>
<stop stop-color="#A80D0E" offset=".99"/>
<stop stop-color="#A80D0E" offset="1"/>
</linearGradient>
<linearGradient id="v" x1="79.319%" x2="23.088%" y1="62.754%" y2="17.888%">
<stop stop-color="#7E110B" offset="0"/>
<stop stop-color="#9E0C00" offset=".99"/>
<stop stop-color="#9E0C00" offset="1"/>
</linearGradient>
<linearGradient id="u" x1="92.88%" x2="59.841%" y1="74.122%" y2="39.704%">
<stop stop-color="#79130D" offset="0"/>
<stop stop-color="#9E120B" offset=".99"/>
<stop stop-color="#9E120B" offset="1"/>
</linearGradient>
<radialGradient id="t" cx="32.001%" cy="40.21%" r="69.573%">
<stop stop-color="#A80D00" offset="0"/>
<stop stop-color="#7E0E08" offset=".99"/>
<stop stop-color="#7E0E08" offset="1"/>
</radialGradient>
<radialGradient id="s" cx="13.549%" cy="40.86%" r="88.386%">
<stop stop-color="#A30C00" offset="0"/>
<stop stop-color="#800E08" offset=".99"/>
<stop stop-color="#800E08" offset="1"/>
</radialGradient>
<linearGradient id="r" x1="56.57%" x2="3.105%" y1="101.72%" y2="11.993%">
<stop stop-color="#8B2114" offset="0"/>
<stop stop-color="#9E100A" offset=".43"/>
<stop stop-color="#B3100C" offset=".99"/>
<stop stop-color="#B3100C" offset="1"/>
</linearGradient>
<linearGradient id="q" x1="30.87%" x2="92.471%" y1="35.599%" y2="100.69%">
<stop stop-color="#B31000" offset="0"/>
<stop stop-color="#910F08" offset=".44"/>
<stop stop-color="#791C12" offset=".99"/>
<stop stop-color="#791C12" offset="1"/>
</linearGradient>
</defs>
<path d="m197.47 167.76-145.52 86.41 188.42-12.787 14.511-189.99-57.414 116.37z" fill="url(#af)"/>
<path d="m240.68 241.26-16.195-111.78-44.113 58.25 60.308 53.528z" fill="url(#ae)"/>
<path d="m240.9 241.26-118.65-9.313-69.674 21.986 188.32-12.673z" fill="url(#ad)"/>
<path d="M52.744 253.955l29.64-97.1L17.16 170.8l35.583 83.154z" fill="url(#ac)"/>
<path d="m180.36 188.05-27.273-106.82-78.047 73.16 105.32 33.666z" fill="url(#ab)"/>
<path d="m248.69 82.73-73.777-60.256-20.544 66.418 94.321-6.162z" fill="url(#aa)"/>
<path d="M214.191.99L170.8 24.97 143.424.669l70.767.322z" fill="url(#z)"/>
<path d="M0 203.372l18.177-33.151-14.704-39.494L0 203.372z" fill="url(#y)"/>
<path d="M2.496 129.48l14.794 41.963 64.283-14.422 73.39-68.207 20.712-65.787L143.063 0 87.618 20.75c-17.469 16.248-51.366 48.396-52.588 49-1.21.618-22.384 40.639-32.534 59.73z" fill="#FFF"/>
<path d="m54.442 54.094c37.86-37.538 86.667-59.716 105.4-40.818 18.72 18.898-1.132 64.823-38.992 102.35-37.86 37.525-86.062 60.925-104.78 42.027-18.73-18.885 0.515-66.032 38.375-103.56z" fill="url(#x)"/>
<path d="m52.744 253.92 29.408-97.409 97.665 31.376c-35.312 33.113-74.587 61.106-127.07 66.033z" fill="url(#w)"/>
<path d="m155.09 88.622 25.073 99.313c29.498-31.016 55.972-64.36 68.938-105.6l-94.01 6.29z" fill="url(#v)"/>
<path d="m248.85 82.833c10.035-30.282 12.35-73.725-34.966-81.791l-38.825 21.445 73.791 60.346z" fill="url(#u)"/>
<path d="M0 202.935c1.39 49.979 37.448 50.724 52.808 51.162l-35.48-82.86L0 202.935z" fill="#9E1209"/>
<path d="M155.232 88.777c22.667 13.932 68.35 41.912 69.276 42.426 1.44.81 19.695-30.784 23.838-48.64l-93.114 6.214z" fill="url(#t)"/>
<path d="m82.113 156.51 39.313 75.848c23.246-12.607 41.45-27.967 58.121-44.42l-97.434-31.428z" fill="url(#s)"/>
<path d="m17.174 171.34-5.57 66.328c10.51 14.357 24.97 15.605 40.136 14.486-10.973-27.311-32.894-81.92-34.566-80.814z" fill="url(#r)"/>
<path d="m174.83 22.654 78.1 10.96c-4.169-17.662-16.969-29.06-38.787-32.623l-39.313 21.663z" fill="url(#q)"/>
</svg>
