<?xml version="1.0" encoding="UTF-8"?>
<svg preserveAspectRatio="xMidYMid" version="1.1" viewBox="0 0 512 314" xmlns="http://www.w3.org/2000/svg" xmlns:xlink="http://www.w3.org/1999/xlink">
<defs>
<linearGradient id="i" x1="68.188%" x2="27.823%" y1="17.487%" y2="89.755%">
<stop stop-color="#41873F" offset="0"/>
<stop stop-color="#418B3D" offset=".3288"/>
<stop stop-color="#419637" offset=".6352"/>
<stop stop-color="#3FA92D" offset=".9319"/>
<stop stop-color="#3FAE2A" offset="1"/>
</linearGradient>
<path id="a" d="m57.903 1.8492c-1.8492-1.0402-4.0451-1.0402-5.8944 0l-48.657 28.085c-1.8492 1.0402-2.8894 3.005-2.8894 5.0853v56.285c0 2.0804 1.1558 4.0451 2.8894 5.0853l48.657 28.085c1.8492 1.0402 4.0451 1.0402 5.8944 0l48.657-28.085c1.8492-1.0402 2.8894-3.005 2.8894-5.0853v-56.285c0-2.0804-1.1558-4.0451-2.8894-5.0853l-48.657-28.085z"/>
<linearGradient id="h" x1="43.277%" x2="159.25%" y1="55.169%" y2="-18.306%">
<stop stop-color="#41873F" offset=".1376"/>
<stop stop-color="#54A044" offset=".4032"/>
<stop stop-color="#66B848" offset=".7136"/>
<stop stop-color="#6CC04A" offset=".9081"/>
</linearGradient>
<linearGradient id="g" x1="-4413.8%" x2="5327.9%" y1="13.43%" y2="13.43%">
<stop stop-color="#6CC04A" offset=".091916"/>
<stop stop-color="#66B848" offset=".2864"/>
<stop stop-color="#54A044" offset=".5968"/>
<stop stop-color="#41873F" offset=".8624"/>
</linearGradient>
<linearGradient id="f" x1="-4.3888%" x2="101.5%" y1="49.997%" y2="49.997%">
<stop stop-color="#6CC04A" offset=".091916"/>
<stop stop-color="#66B848" offset=".2864"/>
<stop stop-color="#54A044" offset=".5968"/>
<stop stop-color="#41873F" offset=".8624"/>
</linearGradient>
<linearGradient id="e" x1="-9713.8%" x2="27.93%" y1="36.21%" y2="36.21%">
<stop stop-color="#6CC04A" offset=".091916"/>
<stop stop-color="#66B848" offset=".2864"/>
<stop stop-color="#54A044" offset=".5968"/>
<stop stop-color="#41873F" offset=".8624"/>
</linearGradient>
<linearGradient id="d" x1="-103.86%" x2="100.8%" y1="50.275%" y2="50.275%">
<stop stop-color="#6CC04A" offset=".091916"/>
<stop stop-color="#66B848" offset=".2864"/>
<stop stop-color="#54A044" offset=".5968"/>
<stop stop-color="#41873F" offset=".8624"/>
</linearGradient>
<linearGradient id="c" x1="130.61%" x2="4.3933%" y1="-211.07%" y2="201.61%">
<stop stop-color="#41873F" offset="0"/>
<stop stop-color="#418B3D" offset=".3288"/>
<stop stop-color="#419637" offset=".6352"/>
<stop stop-color="#3FA92D" offset=".9319"/>
<stop stop-color="#3FAE2A" offset="1"/>
</linearGradient>
</defs>
<g fill="none">
<path d="m253.11 313.09c-1.7336 0-3.3517-0.4623-4.8542-1.2713l-15.372-9.1305c-2.3115-1.2713-1.1558-1.7336-0.4623-1.9648 3.1205-1.0402 3.6984-1.2713 6.9345-3.1205 0.34673-0.23115 0.80903-0.11558 1.1558 0.11558l11.789 7.0501c0.4623 0.23115 1.0402 0.23115 1.3869 0l46.115-26.698c0.4623-0.23115 0.69345-0.69345 0.69345-1.2713v-53.28c0-0.57788-0.23115-1.0402-0.69345-1.2713l-46.115-26.582c-0.4623-0.23115-1.0402-0.23115-1.3869 0l-46.115 26.582c-0.4623 0.23115-0.69345 0.80903-0.69345 1.2713v53.28c0 0.4623 0.23115 1.0402 0.69345 1.2713l12.598 7.2813c6.819 3.4673 11.095-0.57788 11.095-4.623v-52.587c0-0.69345 0.57788-1.3869 1.3869-1.3869h5.8944c0.69345 0 1.3869 0.57788 1.3869 1.3869v52.587c0 9.1305-4.9698 14.447-13.638 14.447-2.6582 0-4.7386 0-10.633-2.8894l-12.135-6.9345c-3.005-1.7336-4.8542-4.9698-4.8542-8.437v-53.28c0-3.4673 1.8492-6.7034 4.8542-8.437l46.115-26.698c2.8894-1.6181 6.819-1.6181 9.7084 0l46.115 26.698c3.005 1.7336 4.8542 4.9698 4.8542 8.437v53.28c0 3.4673-1.8492 6.7034-4.8542 8.437l-46.115 26.698c-1.5025 0.69345-3.2361 1.0402-4.8542 1.0402zm14.216-36.637c-20.226 0-24.386-9.246-24.386-17.105 0-0.69345 0.57788-1.3869 1.3869-1.3869h6.0099c0.69345 0 1.2713 0.4623 1.2713 1.1558 0.9246 6.1255 3.5828 9.1305 15.834 9.1305 9.7084 0 13.869-2.1959 13.869-7.3968 0-3.005-1.1558-5.2009-16.296-6.7034-12.598-1.2713-20.457-4.0451-20.457-14.1 0-9.3616 7.8591-14.909 21.035-14.909 14.794 0 22.075 5.0853 23 16.181 0 0.34673-0.11558 0.69345-0.34673 1.0402-0.23115 0.23115-0.57788 0.4623-0.9246 0.4623h-6.0099c-0.57788 0-1.1558-0.4623-1.2713-1.0402-1.3869-6.3567-4.9698-8.437-14.447-8.437-10.633 0-11.904 3.6984-11.904 6.4722 0 3.3517 1.5025 4.3919 15.834 6.2411 14.216 1.8492 20.919 4.5074 20.919 14.447-0.11558 10.171-8.437 15.949-23.115 15.949z" fill="#539E43"/>
<path d="m110.03 104.71c0-2.0804-1.1558-4.0451-3.005-5.0853l-49.004-28.2c-0.80903-0.4623-1.7336-0.69345-2.6582-0.80903h-0.4623c-0.9246 0-1.8492 0.34673-2.6582 0.80903l-49.004 28.2c-1.8492 1.0402-3.005 3.005-3.005 5.0853l0.11558 75.818c0 1.0402 0.57788 2.0804 1.5025 2.5427 0.9246 0.57788 2.0804 0.57788 2.8894 0l29.125-16.643c1.8492-1.0402 3.005-3.005 3.005-5.0853v-35.482c0-2.0804 1.1558-4.0451 3.005-5.0853l12.367-7.1657c0.9246-0.57788 1.9648-0.80903 3.005-0.80903s2.0804 0.23115 2.8894 0.80903l12.367 7.1657c1.8492 1.0402 3.005 3.005 3.005 5.0853v35.482c0 2.0804 1.1558 4.0451 3.005 5.0853l29.125 16.643c0.9246 0.57788 2.0804 0.57788 3.005 0 0.9246-0.4623 1.5025-1.5025 1.5025-2.5427l-0.11558-75.818z" fill="#333"/>
<path d="m345.57 0.34673c-0.9246-0.4623-2.0804-0.4623-2.8894 0-0.9246 0.57788-1.5025 1.5025-1.5025 2.5427v75.124c0 0.69345-0.34673 1.3869-1.0402 1.8492-0.69345 0.34673-1.3869 0.34673-2.0804 0l-12.251-7.0501c-1.8492-1.0402-4.0451-1.0402-5.8944 0l-49.004 28.316c-1.8492 1.0402-3.005 3.005-3.005 5.0853v56.516c0 2.0804 1.1558 4.0451 3.005 5.0853l49.004 28.316c1.8492 1.0402 4.0451 1.0402 5.8944 0l49.004-28.316c1.8492-1.0402 3.005-3.005 3.005-5.0853v-140.89c0-2.1959-1.1558-4.1607-3.005-5.2009l-29.241-16.296zm-4.5074 143.78c0 0.57788-0.23115 1.0402-0.69345 1.2713l-16.758 9.7084c-0.4623 0.23115-1.0402 0.23115-1.5025 0l-16.758-9.7084c-0.4623-0.23115-0.69345-0.80903-0.69345-1.2713v-19.417c0-0.57788 0.23115-1.0402 0.69345-1.2713l16.758-9.7084c0.4623-0.23115 1.0402-0.23115 1.5025 0l16.758 9.7084c0.4623 0.23115 0.69345 0.80903 0.69345 1.2713v19.417z" fill="#333"/>
<g transform="translate(401.05 70.501)">
<path d="m107.6 53.743c1.8492-1.0402 2.8894-3.005 2.8894-5.0853v-13.753c0-2.0804-1.1558-4.0451-2.8894-5.0853l-48.657-28.2c-1.8492-1.0402-4.0451-1.0402-5.8944 0l-49.004 28.316c-1.8492 1.0402-3.005 3.005-3.005 5.0853v56.516c0 2.0804 1.1558 4.0451 3.005 5.0853l48.657 27.738c1.8492 1.0402 4.0451 1.0402 5.7788 0l29.472-16.412c0.9246-0.4623 1.5025-1.5025 1.5025-2.5427 0-1.0402-0.57788-2.0804-1.5025-2.5427l-49.235-28.316c-0.9246-0.57788-1.5025-1.5025-1.5025-2.5427v-17.683c0-1.0402 0.57788-2.0804 1.5025-2.5427l15.372-8.7837c0.9246-0.57788 2.0804-0.57788 3.005 0l15.372 8.7837c0.9246 0.57788 1.5025 1.5025 1.5025 2.5427v13.869c0 1.0402 0.57788 2.0804 1.5025 2.5427 0.9246 0.57788 2.0804 0.57788 3.005 0l29.125-16.99z" fill="#333"/>
<path d="m55.245 51.084c0.34673-0.23115 0.80903-0.23115 1.1558 0l9.3616 5.4321c0.34673 0.23115 0.57788 0.57788 0.57788 1.0402v10.864c0 0.4623-0.23115 0.80903-0.57788 1.0402l-9.3616 5.4321c-0.34673 0.23115-0.80903 0.23115-1.1558 0l-9.3616-5.4321c-0.34673-0.23115-0.57788-0.57788-0.57788-1.0402v-10.864c0-0.4623 0.23115-0.80903 0.57788-1.0402l9.3616-5.4321z" fill="#539E43"/>
</g>
<g transform="translate(134.07 70.501)">
<mask id="b" fill="white">
<use xlink:href="#a"/>
</mask>
<use fill="url(#i)" xlink:href="#a"/>
<g mask="url(#b)">
<path d="m51.893 1.8492-48.773 28.085c-1.8492 1.0402-3.1205 3.005-3.1205 5.0853v56.285c0 1.3869 0.57788 2.6582 1.5025 3.6984l54.783-93.847c-1.3869-0.23115-3.005-0.11558-4.3919 0.69345z"/>
<path d="m56.632 125.05c0.4623-0.11558 0.9246-0.34673 1.3869-0.57788l48.773-28.085c1.8492-1.0402 3.005-3.005 3.005-5.0853v-56.285c0-1.5025-0.69345-3.005-1.7336-4.0451l-51.431 94.079z"/>
<path d="m106.68 29.934-48.888-28.085c-0.4623-0.23115-1.0402-0.4623-1.5025-0.57788l-54.783 93.847c0.4623 0.57788 1.0402 1.0402 1.6181 1.3869l48.888 28.085c1.3869 0.80903 3.005 1.0402 4.5074 0.57788l51.431-94.079c-0.34673-0.4623-0.80903-0.80903-1.2713-1.1558z" fill="url(#h)"/>
</g>
<g mask="url(#b)">
<g transform="translate(0 -9.246)">
<path d="m109.8 100.55v-56.285c0-2.0804-1.2713-4.0451-3.1205-5.0853l-48.888-28.085c-0.57788-0.34673-1.1558-0.57788-1.8492-0.69345l53.512 91.42c0.23115-0.34673 0.34673-0.80903 0.34673-1.2713z" fill="none"/>
<path d="m3.1205 39.18c-1.8492 1.0402-3.1205 3.005-3.1205 5.0853v56.285c0 2.0804 1.3869 4.0451 3.1205 5.0853l48.888 28.085c1.1558 0.69345 2.4271 0.9246 3.814 0.69345l-52.356-95.35-0.34673 0.11558z" fill="none"/>
<path d="m50.391 0.80903-0.69345 0.34673h0.9246l-0.23115-0.34673z" fill="url(#g)" fill-rule="evenodd"/>
<path d="m106.79 105.64c1.3869-0.80903 2.4271-2.1959 2.8894-3.6984l-53.627-91.536c-1.3869-0.23115-2.8894-0.11558-4.1607 0.69345l-48.542 27.969 52.356 95.465c0.69345-0.11558 1.5025-0.34673 2.1959-0.69345l48.888-28.2z" fill="url(#f)" fill-rule="evenodd"/>
<path d="m111.3 104.71-0.34673-0.57788v0.80903l0.34673-0.23115z" fill="url(#e)" fill-rule="evenodd"/>
<path d="m106.79 105.64-48.773 28.085c-0.69345 0.34673-1.3869 0.57788-2.1959 0.69345l0.9246 1.7336 54.089-31.321v-0.69345l-1.3869-2.3115c-0.23115 1.6181-1.2713 3.005-2.6582 3.814z" fill="url(#d)" fill-rule="evenodd"/>
<path d="m106.79 105.64-48.773 28.085c-0.69345 0.34673-1.3869 0.57788-2.1959 0.69345l0.9246 1.7336 54.089-31.321v-0.69345l-1.3869-2.3115c-0.23115 1.6181-1.2713 3.005-2.6582 3.814z" fill="url(#c)" fill-rule="evenodd"/>
</g>
</g>
</g>
</g>
</svg>
